<?xml version="1.0" standalone="no"?>
<!DOCTYPE svg PUBLIC "-//W3C//DTD SVG 20010904//EN"
 "http://www.w3.org/TR/2001/REC-SVG-20010904/DTD/svg10.dtd">
<svg version="1.0" xmlns="http://www.w3.org/2000/svg"
 width="96.000000pt" height="96.000000pt" viewBox="0 0 96.000000 96.000000"
 preserveAspectRatio="xMidYMid meet">
<metadata>
Created by potrace 1.14, written by Peter Selinger 2001-2017
</metadata>
<g transform="translate(0.000000,96.000000) scale(0.100000,-0.100000)"
fill="#000000" stroke="none">
<path d="M136 854 c-14 -13 -16 -56 -16 -314 0 -258 2 -301 16 -314 23 -23
284 -24 284 -1 0 13 -22 15 -135 15 -113 0 -135 2 -135 15 0 13 22 15 135 15
113 0 135 2 135 15 0 13 -22 15 -135 15 l-135 0 0 210 0 210 330 0 330 0 0
-210 0 -210 -45 0 c-33 0 -45 -4 -45 -15 0 -11 12 -15 45 -15 33 0 45 -4 45
-15 0 -11 -12 -15 -45 -15 -33 0 -45 -4 -45 -15 0 -11 12 -15 44 -15 78 0 76
-8 76 330 0 258 -2 301 -16 314 -13 14 -59 16 -344 16 -285 0 -331 -2 -344
-16z m204 -54 c11 -21 20 -42 20 -45 0 -3 -47 -5 -105 -5 l-105 0 0 45 0 45
85 0 85 0 20 -40z m108 -5 l22 -45 -35 0 c-30 0 -37 5 -55 40 -11 21 -20 42
-20 45 0 3 15 5 33 5 29 0 36 -5 55 -45z m362 0 l0 -45 -153 0 -153 0 -22 45
-22 45 175 0 175 0 0 -45z"/>
<path d="M210 615 c0 -12 14 -15 65 -15 51 0 65 3 65 15 0 12 -14 15 -65 15
-51 0 -65 -3 -65 -15z"/>
<path d="M417 624 c-4 -4 -7 -50 -7 -102 0 -85 2 -94 20 -99 19 -5 19 -6 -3
-43 l-22 -39 23 -30 c12 -17 22 -44 22 -61 0 -18 6 -33 15 -36 10 -4 15 -20
15 -49 0 -60 18 -75 90 -75 72 0 90 15 90 75 0 29 5 45 15 49 9 3 15 18 15 36
0 17 10 44 22 61 l23 30 -22 39 c-22 37 -22 38 -2 43 18 5 20 12 17 104 l-3
98 -151 3 c-82 1 -153 -1 -157 -4z m293 -99 c0 -71 -1 -75 -22 -75 -17 0 -32
15 -56 55 -28 46 -38 55 -62 55 -24 0 -34 -9 -62 -55 -24 -40 -39 -55 -55 -55
-22 0 -23 4 -23 75 l0 75 140 0 140 0 0 -75z m-150 -59 c0 -27 -6 -48 -16 -56
-35 -30 5 -98 44 -74 22 14 27 57 8 74 -16 13 -23 100 -8 100 4 0 31 -37 60
-81 51 -78 53 -82 37 -105 -15 -23 -21 -24 -115 -24 -94 0 -100 1 -115 24 -16
23 -14 27 37 105 29 44 56 81 61 81 4 0 7 -20 7 -44z m20 -91 c0 -8 -4 -15
-10 -15 -5 0 -10 7 -10 15 0 8 5 15 10 15 6 0 10 -7 10 -15z m80 -120 c0 -12
-17 -15 -90 -15 -73 0 -90 3 -90 15 0 12 17 15 90 15 73 0 90 -3 90 -15z m-30
-90 l0 -45 -60 0 -60 0 0 45 0 45 60 0 60 0 0 -45z"/>
<path d="M210 555 c0 -12 14 -15 65 -15 51 0 65 3 65 15 0 12 -14 15 -65 15
-51 0 -65 -3 -65 -15z"/>
<path d="M210 495 c0 -12 14 -15 65 -15 51 0 65 3 65 15 0 12 -14 15 -65 15
-51 0 -65 -3 -65 -15z"/>
<path d="M210 435 c0 -12 14 -15 65 -15 51 0 65 3 65 15 0 12 -14 15 -65 15
-51 0 -65 -3 -65 -15z"/>
</g>
</svg>
