<svg xmlns="http://www.w3.org/2000/svg" width="2560" height="1080" preserveAspectRatio="none"><g mask="url(&quot;#a&quot;)" fill="none"><path d="m-54.58 817.32 123.26-18.91M-54.58 817.32l-35.76 165.21M-54.58 817.32 50.08 1001.4M-90.34 982.53l140.42 18.87M-90.34 982.53l38.84 175.95M-90.34 982.53 68.68 798.41M-51.5 1158.48l6.36 131.44M-51.5 1158.48l106.44 121.36M-45.14 1289.92l100.08-10.08M-45.14 1289.92l95.22-288.52M-45.14 1289.92l306.08-29.11M-45.14 1289.92l-45.2-307.39M-45.14 1289.92l289.99-131.49M107.77 659.18l126.6 36.93M107.77 659.18 68.68 798.41M50.08 1001.4l149.07-1.41M50.08 1001.4-51.5 1158.48M50.08 1001.4l18.6-202.99M50.08 1001.4l194.77 157.03M234.37 696.11l118.34 4.87M234.37 696.11l-16.1 118.57M234.37 696.11 68.68 798.41M234.37 696.11l170.89 128.36M234.37 696.11l272.02-50.38M218.27 814.68 68.68 798.41M199.15 999.99l45.7 158.44M199.15 999.99l19.12-185.31M199.15 999.99l171.45 98.55M199.15 999.99l208.57-53.53M199.15 999.99 68.68 798.41M244.85 1158.43l16.09 102.38M244.85 1158.43l125.75-59.89M244.85 1158.43l93.66 152.33M244.85 1158.43 54.94 1279.84M260.94 1260.81l77.57 49.95M260.94 1260.81l109.66-162.27M352.71 700.98l52.55 123.49M352.71 700.98l153.68-55.25M352.71 700.98l-134.44 113.7M352.71 700.98l-244.94-41.8M405.26 824.47l2.46 121.99M407.72 946.46l97.22-2.26M407.72 946.46l-37.12 152.08M407.72 946.46 218.27 814.68M338.51 1310.76l167.65-17.54M506.39 645.73l157.69 3.86M504.94 944.2l-99.68-119.73M504.94 944.2l162.1 18.34M561.44 1123.15l119.86-25.42M506.16 1293.22l55.28-170.07M506.16 1293.22l180.25-30.26M664.08 649.59l145.93-87.52M664.08 649.59l182.88 15.22M667.04 962.54l14.26 135.19M667.04 962.54l146.46-13.91M667.04 962.54l-105.6 160.61M667.04 962.54l157.02 157.26M681.3 1097.73l142.76 22.07M681.3 1097.73l5.11 165.23M686.41 1262.96l143.19 37.64M686.41 1262.96l-124.97-139.81M686.41 1262.96l137.65-143.16M686.41 1262.96l284.42 45.09M810.01 562.07l36.95 102.74M813.5 948.63l10.56 171.17M813.5 948.63l158.31-120.19M813.5 948.63l-132.2 149.1M813.5 948.63l159.32 181.58M829.6 1300.6l141.23 7.45M829.6 1300.6l-5.54-180.8M829.6 1300.6l143.22-170.39M829.6 1300.6l-148.3-202.87M829.6 1300.6l277.81-5.51M971.81 828.44l153.97-22.57M971.81 828.44l134.55 137.89M971.81 828.44l145.15-135.96M971.81 828.44 846.96 664.81M971.81 828.44l1.01 301.77M972.82 1130.21l-148.76-10.41M972.82 1130.21l149.62 4.62M972.82 1130.21l-1.99 177.84M972.82 1130.21l133.54-163.88M970.83 1308.05l136.58-12.96M970.83 1308.05l151.61-173.22M970.83 1308.05 824.06 1119.8M1125.77 492.13l150.44 36M1125.77 492.13l-8.81 200.35M1116.96 692.48l8.82 113.39M1116.96 692.48l151.58-53.26M1125.78 805.87l-19.42 160.46M1125.78 805.87l175.75 9.83M1125.78 805.87l142.76-166.65M1106.36 966.33l16.08 168.5M1122.44 1134.83l116.95-17.61M1107.41 1295.09l153.67-30.29M1107.41 1295.09l15.03-160.26M1107.41 1295.09l-134.59-164.88M1107.41 1295.09l131.98-177.87M1276.21 528.13l-7.67 111.09M1276.21 528.13l161.47.12M1276.21 528.13l179.76 120.22M1268.54 639.22l32.99 176.48M1268.54 639.22l187.43 9.13M1301.53 815.7l127.9-5.08M1301.53 815.7l95.81 163.56M1239.39 1117.22l21.69 147.58M1261.08 1264.8l173.72 16.45M1261.08 1264.8l-138.64-129.97M1453.05 223.54l4.7 145.65M1453.05 223.54l98.02 178.68M1453.05 223.54l136.19-171.72M1453.05 223.54l236.36-24.25M1453.05 223.54l237.44 121.89M1453.05 223.54l-15.37 304.71M1457.75 369.19l93.32 33.03M1437.68 528.25l109.17 30.03M1437.68 528.25l18.29 120.1M1437.68 528.25l20.07-159.06M1455.97 648.35l82.34 41.71M1455.97 648.35l90.88-90.07M1455.97 648.35l-26.54 162.27M1429.43 810.62l138.9 46.27M1429.43 810.62l108.88-120.56M1397.34 979.26l33.25 154.82M1397.34 979.26l153.15-41.17M1397.34 979.26l32.09-168.64M1430.59 1134.08l4.21 147.17M1434.8 1281.25l143.66 26.21M1589.24 51.82l129.65 1.41M1589.24 51.82l100.17 147.47M1551.07 402.22l139.42-56.79M1551.07 402.22l-4.22 156.06M1551.07 402.22l-113.39 126.03M1546.85 558.28l-8.54 131.78M1546.85 558.28l156.6-70.1M1538.31 690.06l30.02 166.83M1538.31 690.06l-100.63-161.81M1568.33 856.89l-17.84 81.2M1550.49 938.09l56.61 160.34M1550.49 938.09l-121.06-127.47M1550.49 938.09 1744 956.32M1550.49 938.09l172.79-94.1M1607.1 1098.43l138.79 49.63M1607.1 1098.43l-176.51 35.65M1607.1 1098.43 1744 956.32M1607.1 1098.43l-28.64 209.03M1578.46 1307.46l120.16-6.35M1742.42-108.28l135.78 45.13M1742.42-108.28l-23.53 161.51M1742.42-108.28l-153.18 160.1M1742.42-108.28l148.52 213.06M1742.42-108.28l255.75 58.93M1742.42-108.28l-53.01 307.57M1718.89 53.23l-29.48 146.06M1718.89 53.23l172.05 51.55M1718.89 53.23 1878.2-63.15M1689.41 199.29l1.08 146.14M1689.41 199.29l184.25 39.12M1689.41 199.29l201.53-94.51M1690.49 345.43l12.96 142.75M1690.49 345.43l177.17 41.6M1690.49 345.43l183.17-107.02M1703.45 488.18l-152.38-85.96M1745.31 700.41l120-53.27M1745.31 700.41l-22.03 143.58M1723.28 843.99 1744 956.32M1744 956.32l145.75 33.29M1744 956.32l123.43 139.82M1744 956.32l112.4-152.01M1745.89 1148.06l121.54-51.92M1698.62 1301.11l47.27-153.05M1698.62 1301.11l175.18-50.27M1698.62 1301.11l-91.52-202.68M1698.62 1301.11l-263.82-19.86M1698.62 1301.11l168.81-204.97M1878.2-63.15l119.97 13.8M1878.2-63.15l12.74 167.93M1878.2-63.15l135.37 170.83M1878.2-63.15l295.11-47.87M1890.94 104.78l122.63 2.9M1890.94 104.78l-17.28 133.63M1867.66 387.03l6-148.62M1867.66 387.03l18.94 164.58M1886.6 551.61l-21.29 95.53M1886.6 551.61l136.97 92.05M1886.6 551.61l-183.15-63.43M1856.4 804.31l137.33 7.56M1856.4 804.31l-133.12 39.68M1889.75 989.61l-22.32 106.53M1889.75 989.61l138.98-16.23M1889.75 989.61l-33.35-185.3M1889.75 989.61l111.7 167.54M1889.75 989.61l103.98-177.74M1867.43 1096.14l134.02 61.01M1873.8 1250.84l132.73 59.12M1873.8 1250.84l-6.37-154.7M1873.8 1250.84l127.65-93.69M1873.8 1250.84l-127.91-102.78M1873.8 1250.84l15.95-261.23M1998.17-49.35l15.4 157.03M1998.17-49.35l175.14-61.67M1998.17-49.35l-107.23 154.13M1998.17-49.35l194.01 106.66M2013.57 107.68l37.07 105.7M2013.57 107.68l131.77 83.73M2013.57 107.68l178.61-50.37M2050.64 213.38l94.7-21.97M2052.45 339.97l-1.81-126.59M2052.45 339.97l154.97 18.2M2052.45 339.97l92.89-148.56M2023.57 643.66l151.02 27.69M2023.57 643.66l-158.26 3.48M1993.73 811.87l160.35 4.22M1993.73 811.87l35 161.51M2028.73 973.38l117.11 9.13M2028.73 973.38l-27.28 183.77M2028.73 973.38l125.35-157.29M2028.73 973.38l-161.3 122.76M2001.45 1157.15l151.48 3.22M2001.45 1157.15l5.08 152.81M2006.53 1309.96l181.74-29.51M2006.53 1309.96l146.4-149.59M2173.31-111.02l162.58 2.43M2173.31-111.02l18.87 168.33M2173.31-111.02l-159.74 218.7M2173.31-111.02l186.68 207.66M2173.31-111.02l284.34 1.44M2192.18 57.31l-46.84 134.1M2192.18 57.31l167.81 39.33M2192.18 57.31l122.59 166.55M2192.18 57.31l-141.54 156.07M2145.34 191.41l169.43 32.45M2207.42 358.17l86.87-.91M2207.42 358.17l107.35-134.31M2207.42 358.17l-62.08-166.76M2157.26 550.83l17.33 120.52M2157.26 550.83l-133.69 92.83M2157.26 550.83l179.82-30.87M2157.26 550.83l50.16-192.66M2157.26 550.83l184.75 115M2157.26 550.83l-104.81-210.86M2174.59 671.35l-20.51 144.74M2174.59 671.35l167.42-5.52M2174.59 671.35l133.42 137M2154.08 816.09l153.93-7.74M2154.08 816.09l-8.24 166.42M2145.84 982.51l7.09 177.86M2145.84 982.51l184.36 8.19M2145.84 982.51l182.28 132.1M2152.93 1160.37l35.34 120.08M2152.93 1160.37l175.19-45.76M2188.27 1280.45l152.67-5.35M2335.89-108.59l121.76-.99M2335.89-108.59l24.1 205.23M2335.89-108.59l121.03 172.75M2335.89-108.59l-143.71 165.9M2335.89-108.59l286.84 54.11M2359.99 96.64l96.93-32.48M2359.99 96.64l-45.22 127.22M2314.77 223.86l-20.48 133.4M2294.29 357.26l42.79 162.7M2294.29 357.26l171.5-5.7M2337.08 519.96l4.93 145.87M2337.08 519.96l152.06-13.48M2342.01 665.83l145.87-2.02M2342.01 665.83l-34 142.52M2342.01 665.83l147.13-159.35M2330.2 990.7l-2.08 123.91M2330.2 990.7l129.25 114.24M2330.2 990.7l175.25 9.08M2330.2 990.7l-22.19-182.35M2328.12 1114.61l131.33-9.67M2328.12 1114.61l12.82 160.49M2340.94 1275.1l123.93-15.12M2340.94 1275.1l118.51-170.16M2340.94 1275.1l-188.01-114.73M2457.65-109.58l-.73 173.74M2457.65-109.58l165.08 55.1M2456.92 64.16l164.44-10.8M2456.92 64.16l38.96 190.52M2456.92 64.16l148.74 135.07M2456.92 64.16l165.81-118.64M2495.88 254.68l-30.09 96.88M2495.88 254.68l109.78-55.45M2489.14 506.48l121.13-97.62M2489.14 506.48l-23.35-154.92M2489.14 506.48l-1.26 157.33M2489.14 506.48l168.08-2.58M2487.88 663.81l156.81 15.7M2487.88 663.81l-13.13 193.79M2474.75 857.6l30.7 142.18M2474.75 857.6l-166.74-49.25M2474.75 857.6l120.78 132.22M2474.75 857.6l186.44-29.5M2505.45 999.78l90.08-9.96M2505.45 999.78l-46 105.16M2505.45 999.78l135.56 107.2M2505.45 999.78l-177.33 114.83M2459.45 1104.94l5.42 155.04M2464.87 1259.98l192.09 39.56M2464.87 1259.98l-136.75-145.37M2464.87 1259.98l176.14-153M2622.73-54.48l-1.37 107.84M2622.73-54.48l117.34-38.9M2622.73-54.48l154.46 135.43M2621.36 53.36l-15.7 145.87M2621.36 53.36l155.83 27.59M2621.36 53.36l118.71-146.74M2610.27 408.86l46.95 95.04M2610.27 408.86l-144.48-57.3M2657.22 503.9l110.39-1.41M2657.22 503.9l100.34 133.89M2644.69 679.51l112.87-41.72M2644.69 679.51l16.5 148.59M2644.69 679.51l12.53-175.61M2644.69 679.51l122.92-177.02M2661.19 828.1l122.73 16.37M2595.53 989.82l45.48 117.16M2595.53 989.82l65.66-161.72M2641.01 1106.98l156.21 53.36M2641.01 1106.98l-181.56-2.04M2641.01 1106.98l15.95 192.56M2641.01 1106.98l153.88-148.03M2656.96 1299.54l140.26-139.2M2656.96 1299.54l-197.51-194.6M2656.96 1299.54l-61.43-309.72M2656.96 1299.54l-316.02-24.44M2740.07-93.38l37.12 174.33M2740.07-93.38l-282.42-16.2M2795.89 387.92l-28.28 114.57M2795.89 387.92 2657.22 503.9M2795.89 387.92l-185.62 20.94M2795.89 387.92l-38.33 249.87M2795.89 387.92l-190.23-188.69M2767.61 502.49l-10.05 135.3M2757.56 637.79l26.36 206.68M2757.56 637.79l-96.37 190.31M2783.92 844.47l10.97 114.48M2794.89 958.95l-133.7-130.85M2794.89 958.95l2.33 201.39M2794.89 958.95l-199.36 30.87M2797.22 1160.34" stroke="rgba(255, 51, 204, 0.29)" stroke-width="1.5"/><circle r="5" cx="-54.58" cy="817.32" fill="rgba(255, 51, 204, 0.29)"/><circle r="5" cx="-90.34" cy="982.53" fill="rgba(255, 51, 204, 0.29)"/><circle r="5" cx="-51.5" cy="1158.48" fill="rgba(255, 51, 204, 0.29)"/><circle r="5" cx="-45.14" cy="1289.92" fill="rgba(255, 51, 204, 0.29)"/><circle r="5" cx="107.77" cy="659.18" fill="rgba(255, 51, 204, 0.29)"/><circle r="5" cx="68.68" cy="798.41" fill="rgba(255, 51, 204, 0.29)"/><circle r="5" cx="50.08" cy="1001.4" fill="rgba(255, 51, 204, 0.29)"/><circle r="5" cx="54.94" cy="1279.84" fill="rgba(255, 51, 204, 0.29)"/><circle r="5" cx="234.37" cy="696.11" fill="rgba(255, 51, 204, 0.29)"/><circle r="5" cx="218.27" cy="814.68" fill="rgba(255, 51, 204, 0.29)"/><circle r="5" cx="199.15" cy="999.99" fill="rgba(255, 51, 204, 0.29)"/><circle r="5" cx="244.85" cy="1158.43" fill="rgba(255, 51, 204, 0.29)"/><circle r="5" cx="260.94" cy="1260.81" fill="rgba(255, 51, 204, 0.29)"/><circle r="5" cx="352.71" cy="700.98" fill="rgba(255, 51, 204, 0.29)"/><circle r="5" cx="405.26" cy="824.47" fill="rgba(255, 51, 204, 0.29)"/><circle r="5" cx="407.72" cy="946.46" fill="rgba(255, 51, 204, 0.29)"/><circle r="5" cx="370.6" cy="1098.54" fill="rgba(255, 51, 204, 0.29)"/><circle r="5" cx="338.51" cy="1310.76" fill="rgba(255, 51, 204, 0.29)"/><circle r="5" cx="506.39" cy="645.73" fill="rgba(255, 51, 204, 0.29)"/><circle r="5" cx="504.94" cy="944.2" fill="rgba(255, 51, 204, 0.29)"/><circle r="5" cx="561.44" cy="1123.15" fill="rgba(255, 51, 204, 0.29)"/><circle r="5" cx="506.16" cy="1293.22" fill="rgba(255, 51, 204, 0.29)"/><circle r="5" cx="664.08" cy="649.59" fill="rgba(255, 51, 204, 0.29)"/><circle r="5" cx="667.04" cy="962.54" fill="rgba(255, 51, 204, 0.29)"/><circle r="5" cx="681.3" cy="1097.73" fill="rgba(255, 51, 204, 0.29)"/><circle r="5" cx="686.41" cy="1262.96" fill="rgba(255, 51, 204, 0.29)"/><circle r="5" cx="810.01" cy="562.07" fill="rgba(255, 51, 204, 0.29)"/><circle r="5" cx="846.96" cy="664.81" fill="rgba(255, 51, 204, 0.29)"/><circle r="5" cx="813.5" cy="948.63" fill="rgba(255, 51, 204, 0.29)"/><circle r="5" cx="824.06" cy="1119.8" fill="rgba(255, 51, 204, 0.29)"/><circle r="5" cx="829.6" cy="1300.6" fill="rgba(255, 51, 204, 0.29)"/><circle r="5" cx="971.81" cy="828.44" fill="rgba(255, 51, 204, 0.29)"/><circle r="5" cx="972.82" cy="1130.21" fill="rgba(255, 51, 204, 0.29)"/><circle r="5" cx="970.83" cy="1308.05" fill="rgba(255, 51, 204, 0.29)"/><circle r="5" cx="1125.77" cy="492.13" fill="rgba(255, 51, 204, 0.29)"/><circle r="5" cx="1116.96" cy="692.48" fill="rgba(255, 51, 204, 0.29)"/><circle r="5" cx="1125.78" cy="805.87" fill="rgba(255, 51, 204, 0.29)"/><circle r="5" cx="1106.36" cy="966.33" fill="rgba(255, 51, 204, 0.29)"/><circle r="5" cx="1122.44" cy="1134.83" fill="rgba(255, 51, 204, 0.29)"/><circle r="5" cx="1107.41" cy="1295.09" fill="rgba(255, 51, 204, 0.29)"/><circle r="5" cx="1276.21" cy="528.13" fill="rgba(255, 51, 204, 0.29)"/><circle r="5" cx="1268.54" cy="639.22" fill="rgba(255, 51, 204, 0.29)"/><circle r="5" cx="1301.53" cy="815.7" fill="rgba(255, 51, 204, 0.29)"/><circle r="5" cx="1239.39" cy="1117.22" fill="rgba(255, 51, 204, 0.29)"/><circle r="5" cx="1261.08" cy="1264.8" fill="rgba(255, 51, 204, 0.29)"/><circle r="5" cx="1453.05" cy="223.54" fill="rgba(255, 51, 204, 0.29)"/><circle r="5" cx="1457.75" cy="369.19" fill="rgba(255, 51, 204, 0.29)"/><circle r="5" cx="1437.68" cy="528.25" fill="rgba(255, 51, 204, 0.29)"/><circle r="5" cx="1455.97" cy="648.35" fill="rgba(255, 51, 204, 0.29)"/><circle r="5" cx="1429.43" cy="810.62" fill="rgba(255, 51, 204, 0.29)"/><circle r="5" cx="1397.34" cy="979.26" fill="rgba(255, 51, 204, 0.29)"/><circle r="5" cx="1430.59" cy="1134.08" fill="rgba(255, 51, 204, 0.29)"/><circle r="5" cx="1434.8" cy="1281.25" fill="rgba(255, 51, 204, 0.29)"/><circle r="5" cx="1589.24" cy="51.82" fill="rgba(255, 51, 204, 0.29)"/><circle r="5" cx="1551.07" cy="402.22" fill="rgba(255, 51, 204, 0.29)"/><circle r="5" cx="1546.85" cy="558.28" fill="rgba(255, 51, 204, 0.29)"/><circle r="5" cx="1538.31" cy="690.06" fill="rgba(255, 51, 204, 0.29)"/><circle r="5" cx="1568.33" cy="856.89" fill="rgba(255, 51, 204, 0.29)"/><circle r="5" cx="1550.49" cy="938.09" fill="rgba(255, 51, 204, 0.29)"/><circle r="5" cx="1607.1" cy="1098.43" fill="rgba(255, 51, 204, 0.29)"/><circle r="5" cx="1578.46" cy="1307.46" fill="rgba(255, 51, 204, 0.29)"/><circle r="5" cx="1742.42" cy="-108.28" fill="rgba(255, 51, 204, 0.29)"/><circle r="5" cx="1718.89" cy="53.23" fill="rgba(255, 51, 204, 0.29)"/><circle r="5" cx="1689.41" cy="199.29" fill="rgba(255, 51, 204, 0.29)"/><circle r="5" cx="1690.49" cy="345.43" fill="rgba(255, 51, 204, 0.29)"/><circle r="5" cx="1703.45" cy="488.18" fill="rgba(255, 51, 204, 0.29)"/><circle r="5" cx="1745.31" cy="700.41" fill="rgba(255, 51, 204, 0.29)"/><circle r="5" cx="1723.28" cy="843.99" fill="rgba(255, 51, 204, 0.29)"/><circle r="5" cx="1744" cy="956.32" fill="rgba(255, 51, 204, 0.29)"/><circle r="5" cx="1745.89" cy="1148.06" fill="rgba(255, 51, 204, 0.29)"/><circle r="5" cx="1698.62" cy="1301.11" fill="rgba(255, 51, 204, 0.29)"/><circle r="5" cx="1878.2" cy="-63.15" fill="rgba(255, 51, 204, 0.29)"/><circle r="5" cx="1890.94" cy="104.78" fill="rgba(255, 51, 204, 0.29)"/><circle r="5" cx="1873.66" cy="238.41" fill="rgba(255, 51, 204, 0.29)"/><circle r="5" cx="1867.66" cy="387.03" fill="rgba(255, 51, 204, 0.29)"/><circle r="5" cx="1886.6" cy="551.61" fill="rgba(255, 51, 204, 0.29)"/><circle r="5" cx="1865.31" cy="647.14" fill="rgba(255, 51, 204, 0.29)"/><circle r="5" cx="1856.4" cy="804.31" fill="rgba(255, 51, 204, 0.29)"/><circle r="5" cx="1889.75" cy="989.61" fill="rgba(255, 51, 204, 0.29)"/><circle r="5" cx="1867.43" cy="1096.14" fill="rgba(255, 51, 204, 0.29)"/><circle r="5" cx="1873.8" cy="1250.84" fill="rgba(255, 51, 204, 0.29)"/><circle r="5" cx="1998.17" cy="-49.35" fill="rgba(255, 51, 204, 0.29)"/><circle r="5" cx="2013.57" cy="107.68" fill="rgba(255, 51, 204, 0.29)"/><circle r="5" cx="2050.64" cy="213.38" fill="rgba(255, 51, 204, 0.29)"/><circle r="5" cx="2052.45" cy="339.97" fill="rgba(255, 51, 204, 0.29)"/><circle r="5" cx="2023.57" cy="643.66" fill="rgba(255, 51, 204, 0.29)"/><circle r="5" cx="1993.73" cy="811.87" fill="rgba(255, 51, 204, 0.29)"/><circle r="5" cx="2028.73" cy="973.38" fill="rgba(255, 51, 204, 0.29)"/><circle r="5" cx="2001.45" cy="1157.15" fill="rgba(255, 51, 204, 0.29)"/><circle r="5" cx="2006.53" cy="1309.96" fill="rgba(255, 51, 204, 0.29)"/><circle r="5" cx="2173.31" cy="-111.02" fill="rgba(255, 51, 204, 0.29)"/><circle r="5" cx="2192.18" cy="57.31" fill="rgba(255, 51, 204, 0.29)"/><circle r="5" cx="2145.34" cy="191.41" fill="rgba(255, 51, 204, 0.29)"/><circle r="5" cx="2207.42" cy="358.17" fill="rgba(255, 51, 204, 0.29)"/><circle r="5" cx="2157.26" cy="550.83" fill="rgba(255, 51, 204, 0.29)"/><circle r="5" cx="2174.59" cy="671.35" fill="rgba(255, 51, 204, 0.29)"/><circle r="5" cx="2154.08" cy="816.09" fill="rgba(255, 51, 204, 0.29)"/><circle r="5" cx="2145.84" cy="982.51" fill="rgba(255, 51, 204, 0.29)"/><circle r="5" cx="2152.93" cy="1160.37" fill="rgba(255, 51, 204, 0.29)"/><circle r="5" cx="2188.27" cy="1280.45" fill="rgba(255, 51, 204, 0.29)"/><circle r="5" cx="2335.89" cy="-108.59" fill="rgba(255, 51, 204, 0.29)"/><circle r="5" cx="2359.99" cy="96.64" fill="rgba(255, 51, 204, 0.29)"/><circle r="5" cx="2314.77" cy="223.86" fill="rgba(255, 51, 204, 0.29)"/><circle r="5" cx="2294.29" cy="357.26" fill="rgba(255, 51, 204, 0.29)"/><circle r="5" cx="2337.08" cy="519.96" fill="rgba(255, 51, 204, 0.29)"/><circle r="5" cx="2342.01" cy="665.83" fill="rgba(255, 51, 204, 0.29)"/><circle r="5" cx="2308.01" cy="808.35" fill="rgba(255, 51, 204, 0.29)"/><circle r="5" cx="2330.2" cy="990.7" fill="rgba(255, 51, 204, 0.29)"/><circle r="5" cx="2328.12" cy="1114.61" fill="rgba(255, 51, 204, 0.29)"/><circle r="5" cx="2340.94" cy="1275.1" fill="rgba(255, 51, 204, 0.29)"/><circle r="5" cx="2457.65" cy="-109.58" fill="rgba(255, 51, 204, 0.29)"/><circle r="5" cx="2456.92" cy="64.16" fill="rgba(255, 51, 204, 0.29)"/><circle r="5" cx="2495.88" cy="254.68" fill="rgba(255, 51, 204, 0.29)"/><circle r="5" cx="2465.79" cy="351.56" fill="rgba(255, 51, 204, 0.29)"/><circle r="5" cx="2489.14" cy="506.48" fill="rgba(255, 51, 204, 0.29)"/><circle r="5" cx="2487.88" cy="663.81" fill="rgba(255, 51, 204, 0.29)"/><circle r="5" cx="2474.75" cy="857.6" fill="rgba(255, 51, 204, 0.29)"/><circle r="5" cx="2505.45" cy="999.78" fill="rgba(255, 51, 204, 0.29)"/><circle r="5" cx="2459.45" cy="1104.94" fill="rgba(255, 51, 204, 0.29)"/><circle r="5" cx="2464.87" cy="1259.98" fill="rgba(255, 51, 204, 0.29)"/><circle r="5" cx="2622.73" cy="-54.48" fill="rgba(255, 51, 204, 0.29)"/><circle r="5" cx="2621.36" cy="53.36" fill="rgba(255, 51, 204, 0.29)"/><circle r="5" cx="2605.66" cy="199.23" fill="rgba(255, 51, 204, 0.29)"/><circle r="5" cx="2610.27" cy="408.86" fill="rgba(255, 51, 204, 0.29)"/><circle r="5" cx="2657.22" cy="503.9" fill="rgba(255, 51, 204, 0.29)"/><circle r="5" cx="2644.69" cy="679.51" fill="rgba(255, 51, 204, 0.29)"/><circle r="5" cx="2661.19" cy="828.1" fill="rgba(255, 51, 204, 0.29)"/><circle r="5" cx="2595.53" cy="989.82" fill="rgba(255, 51, 204, 0.29)"/><circle r="5" cx="2641.01" cy="1106.98" fill="rgba(255, 51, 204, 0.29)"/><circle r="5" cx="2656.96" cy="1299.54" fill="rgba(255, 51, 204, 0.29)"/><circle r="5" cx="2740.07" cy="-93.38" fill="rgba(255, 51, 204, 0.29)"/><circle r="5" cx="2777.19" cy="80.95" fill="rgba(255, 51, 204, 0.29)"/><circle r="5" cx="2795.89" cy="387.92" fill="rgba(255, 51, 204, 0.29)"/><circle r="5" cx="2767.61" cy="502.49" fill="rgba(255, 51, 204, 0.29)"/><circle r="5" cx="2757.56" cy="637.79" fill="rgba(255, 51, 204, 0.29)"/><circle r="5" cx="2783.92" cy="844.47" fill="rgba(255, 51, 204, 0.29)"/><circle r="5" cx="2794.89" cy="958.95" fill="rgba(255, 51, 204, 0.29)"/><circle r="5" cx="2797.22" cy="1160.34" fill="rgba(255, 51, 204, 0.29)"/><path d="m38.48 985.52-110.43 13.67M38.48 985.52l156.81-8.78M38.48 985.52-98.3 1108.2M38.48 985.52l206.46 164.15M38.48 985.52l174.78 255.07M38.48 985.52 82.39 1296M244.94 1149.67l-31.68 90.92M244.94 1149.67l96.03-12.56M244.94 1149.67l117.33 110.53M244.94 1149.67l-49.65-172.93M244.94 1149.67 82.39 1296M408.59 937.57l99.08 35.88M408.59 937.57l113.55-86.08M408.59 937.57l-67.62 199.54M408.59 937.57l-213.3 39.17M408.59 937.57l82.9 219.19M408.59 937.57l240.72 70.11M507.67 973.45l14.47-121.96M507.67 973.45l141.64 34.23M507.67 973.45l-16.18 183.31M649.31 1007.68l144.48 120.74M649.31 1007.68l189.91-6.35M649.31 1007.68 522.14 851.49M1134.79 1126.19l127.86-2.19M1262.65 1124l2.19 121.12M1262.65 1124l18.11-175.94M1408.78 1257.22l34.79-112.52M1408.78 1257.22l-143.94-12.1M1539.66 793.66l-.26-96.83M1539.66 793.66l-130.57 29.39M1539.66 793.66l-108.57-108.29M1539.66 793.66l162.23 34.26M1539.66 793.66l-77.57 178.59M1539.66 793.66l2.3 200.06M1541.96 993.72l-79.87-21.47M1541.96 993.72l33.36 101.53M1541.96 993.72l-98.39 150.98M1701.89 827.92l42 134.56M1701.89 827.92l-13.07-182.82M1701.89 827.92 1539.4 696.83M1701.89 827.92l210.05 28.88M1701.89 827.92l-159.93 165.8M1699.76 1280.03l-129.95 23.85M1699.76 1280.03l177.72-6.62M1877.48 1273.41l124.3 28.33M2041.75 806.79l-129.81 50.01M2041.75 806.79l-4.05-144.82M2041.75 806.79l153.54-13.05M2001.78 1301.74l144.73-43.13M2207.98-54l141.13 13.43M2207.98-54l-24.77 164.61M2207.98-54l121.47 125.34M2207.98-54l-2.42 248.1M2450.24 997.02l48.09 98.66M2450.24 997.02l165.79 7.25M2450.24 997.02l-144.2 101.78M2450.24 997.02l33.11-205.86M2602.66 256.67l-1.3 98.54M2602.66 256.67l-130.49-35.77M2602.66 256.67l157.1-34.15M2597.55 703.88l-121.41-44.19M2597.55 703.88l-114.2 87.28M2597.55 703.88l64.07 139.74M2597.55 703.88l38.65-152.1M2597.55 703.88l150.37 98.69M2597.55 703.88l194.61-52.43M2616.03 1004.27l40.71 95.83M2616.03 1004.27l122.58-39.43M2616.03 1004.27l-117.7 91.41M2616.03 1004.27l45.59-160.65M2809.39 1251.97l-.14-152.37M2809.39 1251.97l-198.06 13.82M2809.39 1251.97l-152.65-151.87M2809.39 1251.97l-70.78-287.13M-71.95 999.19-98.3 1108.2M-71.95 999.19l267.24-22.45M-98.3 1108.2l47.9 200.2M-98.3 1108.2 82.39 1296M-98.3 1108.2l293.59-131.46M-98.3 1108.2l311.56 132.39M-50.4 1308.4 82.39 1296M-50.4 1308.4l263.66-67.81M-50.4 1308.4l-21.55-309.21M82.39 1296l130.87-55.41M82.39 1296l279.88-35.8M82.39 1296l258.58-158.89M195.29 976.74l145.68 160.37M213.26 1240.59l149.01 19.61M213.26 1240.59l127.71-103.48M213.26 1240.59l-17.97-263.85M340.97 1137.11l21.3 123.09M340.97 1137.11l150.52 19.65M362.27 1260.2l129.22-103.44M522.14 851.49l-30.65 305.27M522.14 851.49l322.11-46.39M491.49 1156.76l37.04 127.44M491.49 1156.76l157.82-149.08M528.53 1284.2l-166.26-24M844.25 805.1l128.49 2.4M844.25 805.1l-5.03 196.23M844.25 805.1l119.14 159.12M844.25 805.1l-194.94 202.58M844.25 805.1l287.5 12.72M839.22 1001.33l124.17-37.11M839.22 1001.33l-45.43 127.09M839.22 1001.33l106.65 111.69M793.79 1128.42l55.42 123.54M793.79 1128.42l152.08-15.4M793.79 1128.42l169.6-164.2M793.79 1128.42l-302.3 28.34M849.21 1251.96l96.66-138.94M972.74 807.5l-9.35 156.72M972.74 807.5l159.01 10.32M963.39 964.22l138.28-12.52M963.39 964.22l-17.52 148.8M1131.75 817.82l117.08-18.5M1131.75 817.82l-30.08 133.88M1131.75 817.82l149.01 130.24M1131.75 817.82l-168.36 146.4M1131.75 817.82l277.34 5.23M1101.67 951.7l33.12 174.49M1101.67 951.7l179.09-3.64M1101.67 951.7 972.74 807.5M1248.83 799.32l31.93 148.74M1280.76 948.06l128.33-125.01M1280.76 948.06l181.33 24.19M1264.84 1245.12l-130.05-118.93M1264.84 1245.12l178.73-100.42M1264.84 1245.12l15.92-297.06M1431.09 685.37l108.31 11.46M1431.09 685.37l-22 137.68M1431.09 685.37l-182.26 113.95M1409.09 823.05l53 149.2M1409.09 823.05l-160.26-23.73M1462.09 972.25l113.23 123M1462.09 972.25l-18.52 172.45M1443.57 1144.7l131.75-49.45M1575.32 1095.25l173.01 2.11M1575.32 1095.25l-5.51 208.63M1569.81 1303.88l-161.03-46.66M1731.12 542.12l-42.3 102.98M1731.12 542.12l170 2.94M1731.12 542.12l134.57 115.39M1731.12 542.12l151.46-137.67M1688.82 645.1l-149.42 51.73M1688.82 645.1l176.87 12.41M1688.82 645.1l-149.16 148.56M1743.89 962.48l4.44 134.88M1743.89 962.48l147.94 41.27M1743.89 962.48l94.58 132.49M1743.89 962.48l168.05-105.68M1748.33 1097.36l90.14-2.39M1882.58 404.45l18.54 140.61M1882.58 404.45l131.83-55.95M1882.58 404.45l161.57 92.45M1901.12 545.06l-35.43 112.45M1901.12 545.06l143.03-48.16M1901.12 545.06l136.58 116.91M1901.12 545.06l113.29-196.56M1865.69 657.51l172.01 4.46M1911.94 856.8l-20.11 146.95M1911.94 856.8l88.22 120.57M1911.94 856.8l-46.25-199.29M1891.83 1003.75l-53.36 91.22M1891.83 1003.75l108.33-26.38M1891.83 1003.75l112.19 95.2M1838.47 1094.97l165.55 3.98M1838.47 1094.97l39.01 178.44M1838.47 1094.97l161.69-117.6M1996.84 235.12l17.57 113.38M1996.84 235.12l-114.26 169.33M1996.84 235.12l208.72-41.02M1996.84 235.12l186.37-124.51M2044.15 496.9l97.95 63.88M2044.15 496.9l-29.74-148.4M2037.7 661.97l104.4-101.19M2037.7 661.97l150.24-8.75M2000.16 977.37l3.86 121.58M2000.16 977.37l41.59-170.58M2004.02 1098.95l152.85-2.67M2183.21 110.61l22.35 83.49M2183.21 110.61l146.24-39.27M2183.21 110.61 2322.1 238.3M2205.56 194.1l116.54 44.2M2205.56 194.1l123.89-122.76M2205.56 194.1l-4.68 177.62M2205.56 194.1l114.5 197.13M2200.88 371.72l119.18 19.51M2200.88 371.72 2322.1 238.3M2142.1 560.78l45.84 92.44M2142.1 560.78l180.9-46.14M2187.94 653.22l7.35 140.52M2195.29 793.74l93.08 11.33M2195.29 793.74 2212.1 954M2195.29 793.74l146-92.3M2212.1 954l-55.23 142.28M2156.87 1096.28l149.17 2.52M2156.87 1096.28l-10.36 162.33M2156.87 1096.28l-156.71-118.91M2156.87 1096.28l137.78 161.44M2146.51 1258.61l148.14-.89M2146.51 1258.61l-142.49-159.66M2349.11-40.57l-19.66 111.91M2349.11-40.57l162.77-55.65M2329.45 71.34l147.88 30.96M2329.45 71.34l-7.35 166.96M2322.1 238.3l150.07-17.4M2322.1 238.3l-2.04 152.93M2320.06 391.23l2.94 123.41M2323 514.64l124.59-.28M2341.29 701.44l-52.92 103.63M2341.29 701.44l134.85-41.75M2341.29 701.44l-153.35-48.22M2341.29 701.44l142.06 89.72M2341.29 701.44 2323 514.64M2288.37 805.07 2212.1 954M2288.37 805.07l-100.43-151.85M2288.37 805.07l194.98-13.91M2288.37 805.07l187.77-145.38M2306.04 1098.8l-11.39 158.92M2306.04 1098.8 2212.1 954M2294.65 1257.72l179.6-14.91M2294.65 1257.72l203.68-162.04M2294.65 1257.72l-292.87 44.02M2511.88-96.22l108 133.87M2477.33 102.3l-5.16 118.6M2477.33 102.3l142.55-64.65M2477.33 102.3 2349.11-40.57M2477.33 102.3l125.33 154.37M2477.33 102.3l34.55-198.52M2472.17 220.9l18.96 182.49M2491.13 403.39l-43.54 110.97M2491.13 403.39l110.23-48.18M2491.13 403.39l-171.07-12.16M2491.13 403.39l111.53-146.72M2447.59 514.36l28.55 145.33M2447.59 514.36l-127.53-123.13M2476.14 659.69l7.21 131.47M2498.33 1095.68l-24.08 147.13M2474.25 1242.81l137.08 22.98M2474.25 1242.81l-168.21-144.01M2619.88 37.65l183.16 50.45M2619.88 37.65l-17.22 219.02M2619.88 37.65l139.88 184.87M2619.88 37.65l181.09-149.32M2636.2 551.78l106.49-63.88M2636.2 551.78l155.96 99.67M2661.62 843.62l86.3-41.05M2661.62 843.62l76.99 121.22M2656.74 1100.1l152.51-.5M2611.33 1265.79l45.41-165.69M2611.33 1265.79l-113-170.11M2800.97-111.67l2.07 199.77M2800.97-111.67l-289.09 15.45M2800.97-111.67l-41.21 334.19M2803.04 88.1l-43.28 134.42M2803.04 88.1l-200.38 168.57M2759.76 222.52l-3.14 145.22M2759.76 222.52l-158.4 132.69M2759.76 222.52l-17.07 265.38M2756.62 367.74l-13.93 120.16M2756.62 367.74l-155.26-12.53M2756.62 367.74l-153.96-111.07M2756.62 367.74 2636.2 551.78M2756.62 367.74l-265.49 35.65M2742.69 487.9l49.47 163.55M2742.69 487.9l-141.33-132.69M2742.69 487.9l-145.14 215.98M2742.69 487.9l-251.56-84.51M2792.16 651.45l-44.24 151.12M2747.92 802.57l-9.31 162.27M2809.25 1099.6l-70.64-134.76" stroke="hsla(315, 100%, 78%, 0.1)" stroke-width="1.5"/><circle r="25" cx="38.48" cy="985.52" fill="url(&quot;#b&quot;)"/><circle r="25" cx="244.94" cy="1149.67" fill="url(&quot;#b&quot;)"/><circle r="25" cx="408.59" cy="937.57" fill="url(&quot;#b&quot;)"/><circle r="25" cx="507.67" cy="973.45" fill="url(&quot;#b&quot;)"/><circle r="25" cx="649.31" cy="1007.68" fill="url(&quot;#b&quot;)"/><circle r="25" cx="1134.79" cy="1126.19" fill="url(&quot;#b&quot;)"/><circle r="25" cx="1262.65" cy="1124" fill="url(&quot;#b&quot;)"/><circle r="25" cx="1408.78" cy="1257.22" fill="url(&quot;#b&quot;)"/><circle r="25" cx="1539.66" cy="793.66" fill="url(&quot;#b&quot;)"/><circle r="25" cx="1541.96" cy="993.72" fill="url(&quot;#b&quot;)"/><circle r="25" cx="1701.89" cy="827.92" fill="url(&quot;#b&quot;)"/><circle r="25" cx="1699.76" cy="1280.03" fill="url(&quot;#b&quot;)"/><circle r="25" cx="1877.48" cy="1273.41" fill="url(&quot;#b&quot;)"/><circle r="25" cx="2041.75" cy="806.79" fill="url(&quot;#b&quot;)"/><circle r="25" cx="2001.78" cy="1301.74" fill="url(&quot;#b&quot;)"/><circle r="25" cx="2207.98" cy="-54" fill="url(&quot;#b&quot;)"/><circle r="25" cx="2450.24" cy="997.02" fill="url(&quot;#b&quot;)"/><circle r="25" cx="2602.66" cy="256.67" fill="url(&quot;#b&quot;)"/><circle r="25" cx="2597.55" cy="703.88" fill="url(&quot;#b&quot;)"/><circle r="25" cx="2616.03" cy="1004.27" fill="url(&quot;#b&quot;)"/><circle r="25" cx="2809.39" cy="1251.97" fill="url(&quot;#b&quot;)"/></g><defs><radialGradient id="b"><stop stop-color="#333" offset=".1"/><stop stop-color="rgba(255, 51, 204, 0.1)" offset=".2"/><stop stop-color="rgba(255, 51, 204, 0)" offset="1"/></radialGradient><mask id="a"><path fill="#fff" d="M0 0h2560v950H0z"/></mask></defs></svg>