<svg width="100%" height="100%" id="svg" viewBox="0 0 1440 390" xmlns="http://www.w3.org/2000/svg" class="transition duration-300 ease-in-out delay-150"><path d="M 0,400 C 0,400 0,100 0,100 C 196.53333333333336,89.19999999999999 393.0666666666667,78.39999999999999 566,83 C 738.9333333333333,87.60000000000001 888.2666666666667,107.60000000000001 1030,113 C 1171.7333333333333,118.39999999999999 1305.8666666666668,109.19999999999999 1440,100 C 1440,100 1440,400 1440,400 Z" stroke="none" stroke-width="0" fill="#282828" fill-opacity="0.4" class="transition-all duration-300 ease-in-out delay-150 path-0"></path><path d="M 0,400 C 0,400 0,200 0,200 C 163.7333333333333,192.53333333333333 327.4666666666666,185.06666666666666 489,177 C 650.5333333333334,168.93333333333334 809.8666666666668,160.26666666666668 968,164 C 1126.1333333333332,167.73333333333332 1283.0666666666666,183.86666666666667 1440,200 C 1440,200 1440,400 1440,400 Z" stroke="none" stroke-width="0" fill="#282828" fill-opacity="0.53" class="transition-all duration-300 ease-in-out delay-150 path-1"></path><path d="M 0,400 C 0,400 0,300 0,300 C 120.80000000000001,307.3333333333333 241.60000000000002,314.66666666666663 417,305 C 592.4,295.33333333333337 822.4000000000001,268.6666666666667 1002,265 C 1181.6,261.3333333333333 1310.8,280.66666666666663 1440,300 C 1440,300 1440,400 1440,400 Z" stroke="none" stroke-width="0" fill="#282828" fill-opacity="1" class="transition-all duration-300 ease-in-out delay-150 path-2"></path></svg>