

<svg viewBox="0 0 2560 390" width="2560" height="390" xmlns="http://www.w3.org/2000/svg">
  <path d="M 0 400 C 0 400 0 126.77 0 126.77 C 350.26 116.935 700.523 107.1 1008.723 111.288 C 1316.925 115.477 1583.067 133.692 1835.663 138.611 C 2088.26 143.528 2327.314 135.15 2566.365 126.77 C 2566.365 126.77 2566.365 400 2566.365 400 L 0 400 Z" stroke="none" stroke-width="0" fill="#282828" fill-opacity="0.4" class="transition-all duration-300 ease-in-out delay-150 path-0" style="" transform="matrix(1.0000000000000002, 0, 0, 1, 1.1368683772161603e-13, 0)"/>
  <path d="M -9.397 387.47 C -9.397 387.47 -9.397 213.504 -9.397 213.504 C 284.702 207.01 578.802 200.515 868.949 193.498 C 1159.096 186.483 1445.293 178.943 1729.333 182.19 C 2013.374 185.438 2295.259 199.472 2577.145 213.504 C 2577.145 213.504 2577.145 387.47 2577.145 387.47 L -9.397 387.47 Z" stroke="none" stroke-width="0" fill="#282828" fill-opacity="0.53" class="transition-all duration-300 ease-in-out delay-150 path-1" style="" transform="matrix(1.0000000000000002, 0, 0, 1, 1.1368683772161603e-13, 0)"/>
  <path d="M 0 400 C 0 400 0 300 0 300 C 215.143 307.333 430.285 314.667 742.669 305 C 1055.053 295.333 1464.679 268.667 1784.544 265 C 2104.408 261.333 2334.511 280.667 2564.613 300 C 2564.613 300 2564.613 400 2564.613 400 L 0 400 Z" stroke="none" stroke-width="0" fill="#282828" fill-opacity="1" class="transition-all duration-300 ease-in-out delay-150 path-2" style="" transform="matrix(1.0000000000000002, 0, 0, 1, 1.1368683772161603e-13, 0)"/>
</svg>